<svg xmlns="http://www.w3.org/2000/svg" viewBox="0 0 200 200"><defs><style>.cls-1{fill:#00ab52;}.cls-2{fill:#009560;}.cls-3{fill:#007278;}.cls-4{fill:#27235e;}</style></defs><g id="Layer_1" data-name="Layer 1"><path class="cls-1" d="M23.85,106.81a23.67,23.67,0,0,1-4-.37,21.47,21.47,0,0,1-17.09-25A99.09,99.09,0,0,1,100,1a21.39,21.39,0,0,1,0,42.78A56.22,56.22,0,0,0,44.79,89.49a21.39,21.39,0,0,1-20.94,17.32"/><path class="cls-2" d="M29,152.7A21.35,21.35,0,0,1,9.41,140,98.15,98.15,0,0,1,1,100,101.79,101.79,0,0,1,2.74,81.4a21.4,21.4,0,1,1,42.05,8,54.62,54.62,0,0,0-1,10.6,55.91,55.91,0,0,0,4.57,22.85A21.39,21.39,0,0,1,29,152.7"/><path class="cls-3" d="M70.43,193.2a21.62,21.62,0,0,1-8.13-1.65A98.66,98.66,0,0,1,9.41,140a21.39,21.39,0,1,1,38.72-18.19c.15.3.28.6.41.91A56.83,56.83,0,0,0,78.71,152a21.39,21.39,0,0,1-8.19,41.14"/><path class="cls-4" d="M100,199a98.51,98.51,0,0,1-37.71-7.45A21.41,21.41,0,1,1,78.71,152,56.21,56.21,0,1,0,100,43.78,21.39,21.39,0,1,1,100,1h0a99,99,0,0,1,0,198"/></g></svg>